<?xml version="1.0" standalone="no"?>
<!DOCTYPE svg PUBLIC "-//W3C//DTD SVG 20010904//EN"
 "http://www.w3.org/TR/2001/REC-SVG-20010904/DTD/svg10.dtd">
<svg version="1.0" xmlns="http://www.w3.org/2000/svg"
 width="564.000000pt" height="564.000000pt" viewBox="0 0 564.000000 564.000000"
 preserveAspectRatio="xMidYMid meet">
<metadata>
Created by potrace 1.14, written by Peter Selinger 2001-2017
</metadata>
<g transform="translate(0.000000,564.000000) scale(0.100000,-0.100000)"
fill="#000000" stroke="none">
<path d="M4919 4974 c-13 -7 -60 -25 -104 -39 -70 -23 -131 -55 -172 -90 -6
-5 -44 -32 -83 -60 -58 -40 -68 -50 -53 -56 10 -4 22 -2 28 5 17 21 49 34 94
40 41 4 70 26 71 52 0 15 46 32 95 36 38 3 40 2 40 -28 0 -18 8 -41 19 -53 18
-20 19 -58 2 -101 -4 -10 3 -21 22 -32 28 -17 29 -16 66 18 20 19 42 35 49 35
7 1 19 2 27 3 8 1 27 -4 43 -12 33 -15 36 -50 8 -115 -21 -48 -43 -66 -85 -69
-16 -2 -27 -10 -30 -24 -4 -13 -14 -30 -24 -40 -16 -17 -16 -17 8 -10 14 4 34
9 45 11 48 8 124 40 181 75 74 47 121 67 171 74 l38 5 -38 -31 c-20 -17 -76
-54 -124 -82 -48 -28 -87 -55 -88 -61 -1 -22 57 -14 141 20 86 36 108 48 110
63 9 65 19 92 33 93 41 3 46 5 45 14 -1 6 -4 37 -7 70 -14 143 -79 219 -218
255 -38 10 -70 18 -72 18 -1 0 -20 5 -42 11 -65 17 -170 20 -196 5z m225 -38
c56 -23 86 -62 86 -109 0 -32 -24 -90 -45 -107 -23 -19 -97 -21 -142 -5 -21 8
-51 16 -66 20 -32 6 -105 72 -108 95 -4 38 4 52 42 76 82 52 158 61 233 30z"/>
<path d="M4965 4870 c-11 -4 -23 -6 -27 -4 -16 10 -18 -18 -3 -43 31 -51 64
-68 135 -68 59 0 65 2 68 22 2 14 -9 35 -30 58 -27 29 -41 36 -78 39 -25 2
-54 0 -65 -4z"/>
<path d="M4731 4808 c-29 -34 -22 -47 20 -43 52 5 57 10 52 40 -4 19 -11 24
-31 22 -15 -1 -33 -9 -41 -19z"/>
<path d="M4625 4740 c-43 -7 -63 -22 -70 -51 -6 -24 -3 -27 32 -33 34 -5 41
-3 66 24 44 49 33 72 -28 60z"/>
<path d="M4808 4744 c-8 -7 -35 -12 -69 -13 -21 -1 -28 -7 -34 -28 -3 -16 -14
-36 -23 -46 -9 -11 -12 -21 -6 -27 14 -14 103 -18 118 -6 12 11 33 65 41 106
4 19 -14 28 -27 14z"/>
<path d="M4441 4683 c-18 -35 -17 -88 2 -76 6 4 16 8 21 8 16 0 49 53 43 69
-8 21 -54 20 -66 -1z"/>
<path d="M4380 4661 c0 -5 -9 -11 -21 -14 -19 -5 -16 -13 43 -98 81 -119 102
-135 176 -132 31 2 77 -4 102 -12 55 -18 126 -24 160 -14 19 5 14 7 -25 9 -27
1 -57 3 -65 5 -18 3 -132 28 -142 31 -5 1 -27 2 -51 3 -32 1 -52 9 -77 30 -35
29 -35 30 -19 59 20 35 12 53 -21 47 -36 -7 -51 12 -45 56 4 24 2 39 -5 39 -5
0 -10 -4 -10 -9z"/>
<path d="M4963 4638 c-20 -21 -31 -41 -28 -53 2 -11 4 -26 4 -32 1 -20 66 -16
83 5 19 23 34 62 34 87 -1 15 -9 21 -31 23 -23 2 -38 -5 -62 -30z"/>
<path d="M4518 4616 c-21 -15 -24 -45 -5 -47 71 -7 77 -5 102 21 l26 27 -38 6
c-53 9 -66 8 -85 -7z"/>
<path d="M4828 4608 c-8 -11 -25 -21 -38 -22 -20 -1 -26 -7 -28 -32 -3 -30 -1
-31 30 -29 18 2 52 11 74 20 33 13 41 20 37 36 -3 11 -18 26 -33 34 -26 13
-29 13 -42 -7z"/>
<path d="M4234 4585 c-3 -8 -16 -17 -27 -21 -12 -4 -44 -21 -72 -39 -42 -28
-61 -34 -120 -36 -58 -3 -79 1 -126 23 -96 44 -110 44 -158 1 -23 -21 -46 -53
-51 -70 -10 -38 -13 -37 54 -18 48 14 94 19 139 16 17 -1 17 -2 0 -31 -9 -16
-22 -30 -28 -31 -55 -3 -92 -12 -138 -33 -30 -15 -59 -26 -65 -26 -17 0 -15
-10 8 -48 12 -19 27 -58 35 -88 15 -59 41 -100 68 -109 52 -18 -27 -87 -205
-179 -203 -105 -355 -223 -372 -290 -9 -36 -5 -39 28 -27 24 10 27 8 40 -24
15 -36 33 -44 53 -24 9 9 16 3 29 -25 10 -20 24 -36 32 -36 22 0 11 -60 -18
-105 -15 -22 -32 -55 -38 -73 -6 -19 -34 -56 -62 -83 -49 -48 -50 -50 -34 -74
16 -24 15 -27 -14 -72 -17 -26 -30 -48 -29 -50 1 -1 55 -4 120 -6 132 -4 156
4 190 70 39 76 8 160 -49 134 -37 -16 -40 -8 -13 31 19 26 24 46 24 91 -1 48
2 57 17 57 15 0 18 -9 18 -59 0 -55 1 -59 21 -54 12 3 46 30 77 59 30 30 58
52 60 49 3 -3 15 3 26 14 62 57 172 84 229 56 23 -12 27 -11 27 1 0 8 -11 26
-24 40 -20 22 -27 24 -45 15 -11 -7 -21 -9 -21 -6 0 3 -9 1 -21 -6 -22 -11
-191 -15 -208 -5 -6 4 -19 -2 -31 -14 -11 -11 -24 -20 -30 -20 -15 0 -12 33 6
59 13 17 14 28 6 44 -6 12 -13 30 -16 39 -3 12 -13 15 -30 12 -25 -4 -33 8
-27 40 1 5 -11 6 -27 3 -16 -3 -32 -3 -35 0 -11 10 28 56 70 84 38 24 48 26
84 18 23 -5 57 -17 77 -25 21 -9 60 -17 87 -20 138 -10 165 -20 219 -78 111
-118 141 -235 79 -303 -9 -11 -19 -4 -49 32 -45 53 -63 47 -61 -20 1 -29 -5
-50 -16 -63 -9 -10 -17 -27 -17 -36 0 -30 -31 -72 -64 -88 -56 -28 -103 -48
-122 -51 -11 -1 -25 -6 -32 -10 -7 -5 -36 -10 -66 -12 -73 -4 -88 -10 -113
-50 -26 -41 -15 -48 48 -33 26 6 59 25 81 45 44 42 90 50 131 21 15 -11 27
-17 27 -14 0 4 22 -5 50 -19 68 -34 95 -33 109 6 8 24 7 40 -7 77 -20 54 -21
105 -1 129 8 9 55 36 106 60 51 24 94 47 97 51 3 5 0 25 -6 44 -9 31 -7 43 17
94 l28 59 14 -39 c7 -22 20 -47 27 -55 19 -21 32 -57 39 -108 4 -24 13 -55 20
-70 8 -16 20 -46 27 -68 7 -22 19 -44 26 -50 6 -5 15 -36 18 -68 3 -32 11 -67
17 -78 12 -22 14 -34 24 -121 5 -43 15 -69 44 -110 52 -72 69 -108 75 -154 3
-21 12 -66 21 -99 15 -55 14 -122 0 -146 -4 -5 6 -25 20 -44 24 -31 27 -45 31
-137 6 -124 7 -135 21 -149 14 -14 43 35 81 141 43 118 62 206 67 313 8 140
13 169 45 247 l30 73 1 276 c1 152 2 341 4 421 3 164 4 161 -101 325 -83 131
-150 195 -233 223 -32 11 -33 11 -27 -13 8 -32 -4 -32 -60 1 -52 31 -63 28
-34 -9 28 -36 26 -51 -7 -42 -15 3 -38 14 -52 23 -53 35 -81 18 -81 -49 0 -42
-5 -54 -36 -89 -24 -26 -51 -44 -78 -51 -22 -6 -55 -19 -72 -30 -17 -10 -48
-19 -67 -19 -26 0 -46 -9 -71 -30 -31 -28 -39 -30 -88 -26 -29 3 -65 5 -80 5
-34 1 -36 14 -5 28 144 65 140 63 123 82 -15 16 -15 19 -1 31 8 7 40 64 71
127 55 113 82 139 76 75 -5 -69 40 -18 60 66 13 53 32 68 41 32 10 -38 25 -20
37 43 6 34 12 68 14 76 3 17 33 34 46 26 6 -3 11 1 11 9 3 34 18 66 31 66 6 0
39 -27 75 -60 35 -33 69 -60 76 -60 7 1 3 8 -8 18 -34 29 -73 86 -79 114 -5
30 25 78 50 78 24 0 15 28 -21 65 -37 37 -81 47 -91 20z m226 -691 c0 -8 -28
-35 -36 -33 -3 1 -33 -24 -65 -54 -32 -31 -76 -68 -98 -82 -22 -13 -45 -34
-51 -45 -6 -11 -15 -18 -20 -15 -12 8 -5 54 14 90 9 17 16 36 16 43 0 11 18
16 46 13 5 0 19 7 30 17 24 22 74 54 74 48 0 -3 15 1 33 9 34 15 57 19 57 9z"/>
<path d="M3255 4559 c-96 -36 -105 -43 -105 -81 0 -39 34 -69 118 -104 37 -16
72 -33 79 -39 47 -39 34 -38 137 -10 109 29 123 39 130 97 8 58 26 98 58 128
12 11 20 20 17 21 -32 7 -88 11 -209 14 -141 4 -147 3 -225 -26z"/>
<path d="M4641 4571 c-9 -16 -8 -22 8 -31 11 -5 34 -10 51 -10 28 0 31 3 28
27 -3 23 -8 28 -40 31 -29 2 -39 -1 -47 -17z"/>
<path d="M4492 4518 c-18 -18 34 -48 84 -48 35 0 43 4 47 22 4 13 1 26 -6 30
-19 12 -112 9 -125 -4z"/>
<path d="M4843 4505 c-48 -16 -62 -25 -66 -43 -6 -29 9 -36 65 -28 43 6 88 42
88 70 0 22 -22 23 -87 1z"/>
<path d="M3045 4493 c-39 -10 -210 -64 -230 -73 -11 -6 -49 -21 -85 -34 -292
-108 -713 -354 -839 -490 l-24 -26 54 4 c44 2 65 10 101 37 26 19 68 47 95 64
26 16 91 62 143 101 135 102 307 194 360 194 6 0 31 15 57 34 78 54 97 62 178
73 125 15 233 60 231 96 -1 22 -11 27 -41 20z"/>
<path d="M4659 4488 c-5 -25 -2 -31 16 -34 11 -1 31 -5 45 -8 23 -4 26 -1 25
22 0 24 -4 27 -42 28 -24 0 -44 -3 -44 -8z"/>
<path d="M5250 4391 c-19 -10 -64 -37 -100 -60 -107 -67 -208 -112 -243 -109
-32 3 -32 3 23 32 30 16 69 36 85 44 17 9 32 18 35 22 3 3 16 14 30 24 l25 17
-30 -6 c-46 -10 -110 -35 -210 -81 -17 -8 -40 -16 -52 -18 -41 -8 -81 -36
-103 -71 -33 -54 -71 -49 -132 17 -26 29 -48 55 -48 59 0 4 -7 10 -16 13 -12
4 -9 -4 10 -28 45 -60 24 -76 -42 -31 -20 14 -38 21 -40 15 -4 -10 46 -80 57
-80 4 0 43 -34 86 -75 43 -41 81 -75 85 -75 4 0 20 11 35 24 17 15 38 23 54
22 14 -2 45 7 70 20 24 13 51 24 60 24 17 0 198 90 288 143 28 16 57 42 64 56
8 14 24 39 36 54 22 28 31 67 15 67 -4 0 -23 -8 -42 -19z"/>
<path d="M3046 4360 c-39 -15 -105 -33 -148 -40 -91 -13 -127 -26 -186 -70
-99 -72 -145 -120 -183 -190 -31 -59 -51 -92 -59 -100 -7 -7 -82 -128 -102
-165 -9 -16 -19 -48 -23 -70 -4 -22 -9 -49 -11 -60 -3 -11 -7 -71 -10 -133
l-6 -114 24 7 c124 38 301 170 408 304 60 75 100 112 174 158 107 68 148 96
175 118 45 36 136 129 171 175 19 25 43 54 52 64 17 18 17 20 -3 34 -11 7 -43
23 -72 35 -63 26 -117 58 -117 69 0 12 -8 10 -84 -22z"/>
<path d="M3484 4259 c-77 -21 -108 -41 -145 -95 -16 -24 -64 -78 -106 -121
-66 -68 -73 -79 -58 -88 10 -5 27 -19 39 -30 l21 -21 120 37 c252 78 286 100
278 181 -5 53 -52 151 -73 153 -8 1 -42 -6 -76 -16z"/>
<path d="M2433 4117 c-39 -23 -100 -65 -135 -92 -59 -47 -117 -86 -213 -147
-28 -17 -52 -46 -75 -88 -19 -34 -40 -70 -46 -80 -15 -27 -258 -394 -264 -400
-15 -14 -152 -234 -164 -262 -11 -26 -16 -136 -8 -169 3 -12 154 22 260 59
l107 38 15 55 c40 147 139 263 284 334 l61 31 2 74 c3 134 15 239 33 297 14
43 77 161 97 181 7 7 13 17 13 22 0 5 6 15 14 23 12 12 98 167 93 167 -1 0
-34 -19 -74 -43z"/>
<path d="M3060 3901 c-14 -10 -56 -39 -95 -65 -83 -54 -106 -75 -162 -142 -39
-47 -41 -52 -25 -65 9 -9 35 -35 56 -59 l39 -43 56 60 c31 33 79 86 106 118
28 33 71 82 97 110 l47 50 -22 22 c-31 31 -67 36 -97 14z"/>
<path d="M1737 3750 c-151 -140 -540 -537 -673 -685 -101 -113 -125 -145 -118
-156 3 -5 -3 -23 -13 -39 -17 -29 -82 -67 -172 -101 -19 -7 -50 -27 -69 -45
-20 -18 -78 -53 -129 -78 -87 -43 -105 -57 -234 -188 -122 -124 -139 -145
-139 -174 0 -24 6 -37 22 -45 20 -11 100 -13 171 -4 27 3 186 74 257 115 95
54 211 109 262 124 89 26 115 57 110 132 -1 12 -20 31 -47 48 -47 30 -56 45
-50 88 7 59 30 65 30 9 0 -48 2 -49 49 -56 74 -9 75 -10 72 -73 -1 -32 -5 -63
-9 -68 -3 -5 -3 -15 1 -21 10 -15 62 11 222 110 41 26 85 47 98 47 21 0 23 -3
17 -29 -6 -27 -4 -29 46 -43 67 -18 78 -34 56 -81 -32 -66 -15 -95 58 -103 65
-8 99 -26 160 -89 63 -65 80 -74 135 -71 81 5 140 46 163 112 15 41 16 220 3
262 -4 12 -4 22 1 22 171 5 304 10 323 14 14 2 61 7 105 11 44 3 87 8 95 10 8
2 42 6 75 10 33 3 67 8 75 10 8 2 35 6 60 9 44 5 63 9 125 22 49 11 129 49
195 94 52 35 61 46 56 63 -17 60 -18 110 -1 147 15 34 15 40 2 61 -39 62 -48
213 -17 310 10 35 17 65 15 67 -8 8 -36 -21 -94 -93 -66 -84 -111 -127 -212
-205 -93 -72 -274 -184 -354 -220 -96 -44 -352 -121 -445 -135 -14 -2 -38 -7
-53 -10 -61 -12 -196 -22 -274 -19 -69 3 -219 27 -229 37 -2 1 -5 32 -7 67 -6
113 11 155 156 375 72 110 134 202 137 205 5 5 177 268 194 297 5 9 -13 11
-71 10 l-78 -2 -58 -55z"/>
<path d="M2694 3573 c-71 -65 -160 -129 -225 -161 -25 -13 -26 -17 -25 -98 1
-46 5 -84 9 -85 24 -3 246 148 335 229 l34 30 -39 44 c-58 66 -60 67 -89 41z"/>
<path d="M3693 3567 c-24 -5 -43 -14 -43 -18 0 -5 -7 -9 -15 -9 -8 0 -15 -5
-15 -11 0 -13 118 -11 178 3 40 10 41 12 23 24 -27 19 -78 24 -128 11z"/>
<path d="M3738 3412 c-74 -37 -77 -68 -8 -76 37 -4 78 12 100 39 8 10 26 21
40 27 24 9 24 10 5 21 -35 19 -85 15 -137 -11z"/>
<path d="M2315 3345 c-146 -51 -221 -105 -288 -209 -27 -41 -62 -126 -53 -126
5 0 190 81 201 88 5 4 12 7 15 7 3 1 28 11 55 24 28 12 70 31 95 42 l46 20 -4
72 c-5 113 2 105 -67 82z"/>
<path d="M3838 3340 c-21 -17 -53 -34 -72 -37 -40 -6 -102 12 -110 32 -8 23
-32 18 -54 -10 l-20 -26 25 -25 c21 -21 24 -32 20 -67 -3 -23 -9 -53 -13 -66
-6 -20 -4 -23 10 -18 10 4 20 7 22 7 2 0 4 11 4 25 0 45 30 102 58 113 25 10
90 23 135 27 27 3 39 20 35 49 l-3 27 -37 -31z"/>
<path d="M4116 3313 c-4 -5 -11 -8 -14 -8 -4 -1 -20 -8 -35 -16 l-28 -15 38
-27 c21 -14 51 -29 67 -33 25 -6 28 -5 21 15 -3 11 -8 33 -11 48 -8 42 -20 53
-38 36z"/>
<path d="M3520 3256 c-14 -8 -29 -12 -34 -9 -5 3 2 -9 15 -26 15 -20 24 -47
24 -68 1 -55 49 -55 59 0 2 15 8 36 11 48 7 22 -18 69 -38 69 -6 -1 -23 -7
-37 -14z"/>
<path d="M3755 3248 c-22 -5 -45 -16 -51 -26 -18 -27 -27 -82 -15 -82 21 0
120 49 140 69 45 45 20 59 -74 39z"/>
<path d="M3963 3242 c-24 -15 -31 -55 -16 -99 8 -24 19 -46 24 -49 19 -12 48
8 59 41 6 19 20 41 30 48 41 28 -54 86 -97 59z"/>
<path d="M4096 3169 c-13 -11 -30 -35 -36 -54 -9 -27 -20 -37 -56 -51 -24 -9
-44 -22 -44 -30 0 -7 -2 -19 -6 -27 -6 -16 39 -25 165 -33 l74 -5 -6 93 c-4
51 -7 96 -7 100 0 3 -13 11 -30 16 -24 9 -33 7 -54 -9z"/>
<path d="M3631 3020 c-35 -33 -27 -44 24 -34 32 6 65 35 65 56 0 21 -61 6 -89
-22z"/>
<path d="M3745 3009 c-4 -6 2 -19 14 -30 12 -11 21 -30 21 -43 0 -21 5 -24 35
-24 31 0 36 4 43 32 8 30 6 32 -35 54 -49 24 -69 27 -78 11z"/>
<path d="M3145 2970 c-3 -4 1 -13 9 -19 8 -7 17 -22 20 -35 5 -19 11 -22 33
-18 35 6 125 54 127 67 1 11 -182 16 -189 5z"/>
<path d="M3420 2972 c-8 -3 -40 -22 -70 -42 -69 -46 -88 -54 -148 -65 -34 -7
-62 -28 -81 -63 -9 -17 -6 -28 16 -61 22 -35 30 -40 52 -34 47 11 92 32 130
62 20 16 67 44 104 62 59 28 67 35 67 60 0 58 -31 94 -70 81z"/>
<path d="M3516 2962 c-3 -5 -2 -22 3 -38 4 -16 4 -41 0 -56 -7 -26 -6 -28 19
-21 30 7 42 20 42 44 0 9 7 22 15 29 22 18 19 27 -12 33 -16 3 -35 8 -44 12
-10 3 -20 2 -23 -3z"/>
<path d="M3897 2963 c-4 -3 -7 -16 -7 -28 0 -37 -22 -56 -68 -57 -51 0 -53
-10 -9 -37 29 -18 108 -25 120 -10 2 2 7 20 10 41 4 28 0 43 -17 67 -13 17
-26 28 -29 24z"/>
<path d="M3640 2924 c-41 -47 -37 -67 17 -72 61 -5 95 20 91 67 -4 34 -6 36
-40 38 -31 2 -42 -4 -68 -33z"/>
<path d="M3969 2937 c5 -13 7 -42 5 -66 -6 -57 9 -72 56 -56 43 15 105 10 136
-10 28 -18 30 -12 26 70 l-4 65 -66 1 c-78 2 -100 4 -135 13 -25 6 -26 4 -18
-17z"/>
<path d="M3720 2824 c-14 -7 -28 -15 -32 -16 -4 -2 -10 -18 -12 -36 -2 -18
-13 -43 -25 -56 -19 -20 -20 -24 -6 -36 23 -19 40 -7 81 57 20 32 44 63 52 69
14 10 13 13 -6 23 -24 13 -20 13 -52 -5z"/>
<path d="M3548 2815 c-21 -8 -38 -11 -38 -7 0 4 -9 -6 -20 -23 -27 -41 -13
-52 69 -53 74 0 78 2 88 61 2 15 1 27 -4 28 -4 0 -19 2 -33 4 -14 2 -42 -3
-62 -10z"/>
<path d="M3420 2793 c-19 -8 -55 -30 -80 -48 -59 -43 -106 -66 -144 -72 -39
-6 -53 -20 -59 -60 -8 -52 2 -75 29 -69 22 6 107 17 150 20 11 1 39 19 62 41
22 22 53 49 68 61 l28 21 -23 38 -22 38 22 23 c26 27 19 29 -31 7z"/>
<path d="M3786 2765 c-14 -16 -26 -32 -26 -36 0 -15 69 -34 125 -34 59 0 60 1
80 37 26 50 16 58 -78 61 -73 2 -77 1 -101 -28z"/>
<path d="M4032 2781 c-8 -4 -24 -30 -36 -57 l-22 -49 29 -42 c24 -36 34 -43
61 -43 18 0 55 -7 82 -15 27 -8 52 -15 55 -15 6 0 4 105 -3 169 -5 44 -121 81
-166 52z"/>
<path d="M3492 2666 c-7 -16 -11 -30 -9 -31 1 0 22 -13 46 -29 l43 -28 33 32
33 32 -28 29 c-22 25 -34 30 -67 28 -34 -2 -42 -7 -51 -33z"/>
<path d="M3714 2666 c-25 -29 -23 -47 12 -97 40 -58 98 -51 71 9 -8 17 -6 31
6 57 9 19 12 36 7 36 -13 2 -29 6 -32 8 -16 13 -47 6 -64 -13z"/>
<path d="M3880 2658 c0 -4 -5 -7 -11 -5 -16 3 -55 -51 -43 -62 17 -18 138 -40
151 -29 18 15 16 27 -9 64 -16 23 -32 33 -55 36 -18 2 -33 0 -33 -4z"/>
<path d="M3405 2587 c-22 -22 -35 -45 -36 -63 -3 -58 3 -109 13 -115 5 -3 40
-7 76 -8 60 -1 71 2 101 27 29 25 33 32 26 61 -9 40 -36 70 -98 105 l-47 28
-35 -35z"/>
<path d="M3645 2606 c-5 -6 -18 -22 -29 -34 -16 -19 -17 -25 -6 -51 17 -43 61
-56 118 -37 22 7 22 8 -18 53 -22 25 -40 52 -40 59 0 18 -13 24 -25 10z"/>
<path d="M4009 2543 c-71 -86 -80 -136 -31 -185 23 -22 38 -27 102 -31 41 -2
83 -8 93 -12 16 -7 17 2 17 103 l0 110 -32 11 c-18 6 -56 13 -84 16 -40 5 -53
2 -65 -12z"/>
<path d="M3828 2526 c-6 -11 -17 -27 -25 -34 -9 -10 -10 -19 -3 -33 6 -10 12
-19 13 -20 1 0 22 -3 47 -5 45 -5 46 -5 62 33 10 21 17 43 17 48 0 6 -23 15
-50 21 -46 11 -51 10 -61 -10z"/>
<path d="M3200 2517 c-29 -6 -44 -15 -50 -30 -8 -24 -6 -100 5 -117 10 -15 44
-12 115 13 l64 23 1 62 0 63 -46 -3 c-26 -2 -66 -7 -89 -11z"/>
<path d="M3737 2449 c-9 -6 -37 -7 -62 -4 -39 4 -49 2 -70 -19 -13 -13 -34
-31 -45 -39 -12 -9 -26 -34 -32 -59 -5 -23 -12 -51 -14 -60 -2 -10 -6 -26 -8
-35 -2 -10 -9 -31 -15 -46 -13 -35 -2 -40 66 -33 26 2 52 5 57 5 4 1 -5 15
-22 32 -27 27 -30 38 -28 80 2 41 8 55 36 84 30 31 58 46 95 50 6 1 29 -9 52
-22 23 -12 46 -23 52 -23 21 0 11 38 -17 68 -21 23 -32 28 -45 21z"/>
<path d="M3840 2377 c0 -13 -11 -38 -25 -57 -31 -42 -31 -43 0 -60 22 -12 27
-11 40 6 8 10 15 32 15 47 0 17 10 37 26 52 15 14 23 25 18 26 -5 0 -24 2 -41
5 -29 3 -33 1 -33 -19z"/>
<path d="M3300 2359 c-30 -10 -73 -23 -96 -28 -51 -14 -60 -39 -62 -171 l-1
-95 35 -38 c31 -34 39 -37 69 -31 28 5 37 13 47 40 11 31 38 51 64 46 6 -1 16
9 23 22 7 13 23 29 35 36 24 12 46 42 51 69 2 9 10 44 19 77 9 34 16 66 16 72
0 5 -30 10 -66 11 -37 1 -69 3 -73 5 -3 2 -31 -5 -61 -15z"/>
<path d="M3639 2347 c-56 -47 -61 -104 -12 -145 l28 -23 25 33 c14 17 40 46
58 63 40 39 40 55 1 78 -40 23 -68 21 -100 -6z"/>
<path d="M3921 2341 c-20 -13 -24 -76 -6 -91 8 -7 16 -10 16 -6 8 38 20 66 30
66 5 0 4 9 -3 20 -14 23 -17 23 -37 11z"/>
<path d="M3986 2286 c-7 -6 -16 -21 -19 -33 -4 -18 4 -29 35 -52 39 -29 106
-111 135 -165 20 -37 30 -25 47 56 15 73 15 163 0 178 -23 23 -175 35 -198 16z"/>
<path d="M3738 2231 c-20 -23 -41 -62 -36 -66 6 -5 81 -35 82 -33 39 81 39 81
14 100 -30 23 -40 22 -60 -1z"/>
<path d="M3846 2187 c-32 -65 -32 -68 2 -67 15 1 36 0 47 -2 11 -2 20 2 21 7
0 6 4 22 8 38 9 29 -2 50 -34 67 -14 8 -22 0 -44 -43z"/>
<path d="M3961 2161 c-17 -30 -22 -71 -26 -191 -3 -63 -7 -139 -10 -169 -6
-59 0 -68 63 -96 37 -16 47 -18 47 -7 1 12 75 195 94 231 l18 34 -40 61 c-53
79 -104 143 -122 150 -8 3 -19 -3 -24 -13z"/>
<path d="M3650 2108 l-20 -33 53 -3 c28 -2 56 -7 62 -13 5 -5 12 -9 16 -9 10
0 18 50 8 51 -19 3 -25 5 -56 22 -41 22 -40 22 -63 -15z"/>
<path d="M3586 2123 c-2 -3 -36 -4 -76 -4 -65 0 -74 -3 -96 -26 -13 -14 -24
-30 -24 -34 0 -5 -12 -9 -28 -9 -21 0 -30 -7 -41 -30 -14 -33 -73 -70 -110
-70 -5 0 -3 -21 3 -47 12 -46 14 -48 57 -55 24 -4 90 -7 147 -6 118 0 113 -4
134 107 7 43 39 125 65 172 4 6 -25 8 -31 2z"/>
<path d="M3809 2088 c-1 -2 -3 -25 -4 -51 -4 -52 -4 -52 57 -61 l36 -7 4 52
c2 40 -1 53 -14 60 -15 8 -76 13 -79 7z"/>
<path d="M3609 2036 c-4 -5 -38 -160 -35 -163 1 -1 26 -5 55 -8 29 -3 64 -13
78 -22 27 -18 32 -15 39 21 2 14 9 37 14 51 18 47 12 93 -12 106 -17 9 -133
21 -139 15z"/>
<path d="M3789 1902 c-7 -26 -13 -49 -13 -52 -2 -14 -60 -146 -68 -155 -20
-22 -8 -43 30 -49 20 -3 50 -13 66 -21 15 -8 30 -15 32 -15 11 0 56 176 60
241 6 86 4 90 -57 95 -36 3 -37 2 -50 -44z"/>
<path d="M3552 1826 c-5 -6 -13 -23 -19 -38 -11 -23 -9 -28 12 -42 13 -9 27
-16 31 -16 3 0 25 -13 48 -28 l43 -29 23 60 24 60 -23 18 c-13 11 -33 20 -45
20 -74 5 -87 4 -94 -5z"/>
<path d="M3250 1778 c-32 -31 -33 -44 -6 -75 17 -19 26 -21 87 -16 38 3 80 1
98 -5 28 -10 31 -9 31 9 0 11 9 37 20 59 11 22 20 43 20 49 0 5 -47 9 -111 8
-108 -1 -113 -2 -139 -29z"/>
<path d="M3495 1710 c-3 -5 -4 -10 -2 -10 3 0 -3 -28 -14 -62 l-19 -62 24 -26
c60 -66 83 -189 47 -247 -12 -18 -28 -33 -37 -33 -13 0 -15 -7 -9 -36 12 -67
46 -99 65 -64 6 11 8 20 4 20 -3 0 -2 6 4 13 14 17 30 111 32 184 1 83 10 128
34 185 9 21 16 46 16 56 0 23 -33 52 -83 75 -44 20 -53 21 -62 7z"/>
<path d="M3877 1623 c-15 -49 -32 -111 -37 -139 -13 -60 -19 -226 -10 -268 6
-34 25 -45 33 -19 3 10 24 70 47 133 23 63 55 153 70 200 16 47 31 92 35 101
5 12 -8 24 -49 48 -31 17 -57 31 -59 31 -2 0 -16 -39 -30 -87z"/>
<path d="M3282 1652 c-13 -2 -26 -11 -29 -20 -3 -9 -13 -25 -22 -35 -24 -29
-41 -125 -24 -139 26 -21 85 7 146 72 32 33 61 60 66 60 13 0 31 49 21 55 -12
7 -125 12 -158 7z"/>
<path d="M3682 1612 c-21 -14 -54 -123 -58 -197 -7 -123 -13 -175 -18 -184 -3
-5 14 -21 39 -36 25 -14 52 -36 59 -48 15 -22 38 -88 50 -141 9 -38 19 -27 55
58 l29 68 -23 34 c-21 31 -23 43 -20 156 1 68 8 147 14 177 6 29 11 60 11 67
0 27 -110 64 -138 46z"/>
<path d="M3377 1507 c-33 -40 -77 -68 -148 -95 -27 -11 -74 -88 -83 -138 -6
-31 9 -64 29 -64 7 0 20 -7 29 -15 12 -12 20 -13 43 -4 15 6 44 13 63 15 18 3
49 16 68 31 19 14 53 36 76 48 52 27 67 56 60 118 -5 55 -58 147 -85 147 -9 0
-32 -20 -52 -43z"/>
<path d="M3395 1209 c-23 -16 -54 -32 -70 -34 -45 -8 -72 -14 -100 -25 -22 -8
-24 -13 -15 -29 6 -12 7 -29 1 -42 -5 -14 -3 -43 5 -74 7 -27 15 -66 17 -85 6
-43 15 -67 40 -104 l20 -28 19 23 c71 91 208 294 208 309 0 6 -6 10 -14 10
-14 0 -56 74 -56 98 0 18 -11 14 -55 -19z"/>
<path d="M3582 1173 c4 -16 -123 -227 -172 -286 -34 -40 -80 -108 -99 -145
-17 -33 -19 -47 -11 -62 11 -21 23 -24 75 -21 87 4 228 100 329 224 l39 47
-14 48 c-7 26 -14 49 -14 52 -8 44 -35 97 -62 120 -30 27 -76 41 -71 23z"/>
</g>
</svg>
